# This file uses centimeters as units for non-parametric coordinates.

mtllib LMenu.mtl
g default
v -0.029174 0.007845 0.002702
v -0.028504 0.007944 0.002169
v -0.031423 0.008260 -0.000696
v -0.032990 0.008715 -0.004431
v -0.032186 0.008781 -0.004670
v -0.033664 0.008672 -0.004080
v -0.034319 0.008578 -0.003554
v -0.027632 0.008128 0.000860
v -0.027385 0.006539 -0.000085
v -0.027417 0.008224 0.000142
v -0.027328 0.008337 -0.000718
v -0.027372 0.006752 -0.001666
v -0.027405 0.008438 -0.001439
v -0.027639 0.008525 -0.002220
v -0.027971 0.006938 -0.003132
v -0.028004 0.008624 -0.002905
v -0.028535 0.008680 -0.003548
v -0.029090 0.007069 -0.004261
v -0.029122 0.008754 -0.004034
v -0.029851 0.008769 -0.004421
v -0.030558 0.007124 -0.004881
v -0.030591 0.008809 -0.004654
v -0.031417 0.008782 -0.004736
v -0.032153 0.007095 -0.004897
v -0.032186 0.008781 -0.004670
v -0.032990 0.008715 -0.004431
v -0.033631 0.006987 -0.004307
v -0.033664 0.008672 -0.004080
v -0.034319 0.008578 -0.003554
v -0.034767 0.006816 -0.003201
v -0.034800 0.008501 -0.002974
v -0.035183 0.008400 -0.002290
v -0.035388 0.006607 -0.001747
v -0.035421 0.008293 -0.001520
v -0.035512 0.008189 -0.000699
v -0.035401 0.006394 -0.000167
v -0.035433 0.008080 0.000060
v -0.035211 0.007998 0.000829
v -0.034801 0.006208 0.001300
v -0.034834 0.007894 0.001527
v -0.035157 0.006709 -0.002505
v -0.033716 0.007763 0.002656
v -0.032994 0.006064 0.002798
v -0.033011 0.007751 0.003045
v -0.034262 0.006893 -0.003812
v -0.035477 0.006499 -0.000914
v -0.032247 0.007708 0.003276
v -0.031391 0.006050 0.003130
v -0.031416 0.007738 0.003368
v -0.032952 0.007027 -0.004670
v -0.034315 0.006157 0.001897
v -0.034351 0.007845 0.002135
v -0.031386 0.007094 -0.004974
v -0.030652 0.007737 0.003292
v -0.029827 0.006116 0.002830
v -0.029826 0.007807 0.003054
v -0.029777 0.007080 -0.004643
v -0.029174 0.007845 0.002702
v -0.028495 0.006253 0.001956
v -0.028504 0.007944 0.002169
v -0.028004 0.008624 -0.002905
v -0.028471 0.006989 -0.003758
v -0.035167 0.006307 0.000614
v -0.027603 0.006837 -0.002457
v -0.028038 0.008016 0.001596
v -0.027610 0.006436 0.000655
v -0.027293 0.006645 -0.000927
v -0.028005 0.006331 0.001368
v -0.029142 0.006159 0.002475
v -0.030619 0.006051 0.003064
v -0.032214 0.006022 0.003048
v -0.033683 0.006078 0.002428
v -0.029826 0.007807 0.003054
v -0.030652 0.007737 0.003292
v -0.031416 0.007738 0.003368
v -0.032247 0.007708 0.003276
v -0.033011 0.007751 0.003045
v -0.033716 0.007763 0.002656
v -0.034351 0.007845 0.002135
v -0.034834 0.007894 0.001527
v -0.035211 0.007998 0.000829
v -0.035433 0.008080 0.000060
v -0.035512 0.008189 -0.000699
v -0.035421 0.008293 -0.001520
v -0.035183 0.008400 -0.002290
v -0.034800 0.008501 -0.002974
v -0.031417 0.008782 -0.004736
v -0.030591 0.008809 -0.004654
v -0.029851 0.008769 -0.004421
v -0.029122 0.008754 -0.004034
v -0.028535 0.008680 -0.003548
v -0.028004 0.008624 -0.002905
v -0.027639 0.008525 -0.002220
v -0.027405 0.008438 -0.001439
v -0.027328 0.008337 -0.000718
v -0.027417 0.008224 0.000142
v -0.027632 0.008128 0.000860
v -0.028038 0.008016 0.001596
v -0.027971 0.006938 -0.003132
vt 0.336819 0.459060
vt 0.347672 0.545716
vt 0.345811 0.576955
vt 0.342333 0.587751
vt 0.358806 0.537349
vt 0.370544 0.462719
vt 0.367166 0.512356
vt 0.371580 0.473964
vt 0.333852 0.465973
vt 0.373196 0.494343
vt 0.369561 0.505193
vt 0.376784 0.483683
vt 0.340572 0.567256
vt 0.364359 0.495469
vt 0.368615 0.480876
vt 0.342200 0.453804
vt 0.345307 0.552901
vt 0.349521 0.566077
vt 0.361954 0.502641
vt 0.352405 0.531347
vt 0.370470 0.477483
vt 0.351819 0.558999
vt 0.360092 0.487820
vt 0.356249 0.488925
vt 0.371975 0.470041
vt 0.338195 0.574425
vt 0.334965 0.462371
vt 0.357163 0.516989
vt 0.348190 0.569778
vt 0.365909 0.515784
vt 0.371580 0.473964
vt 0.369177 0.481129
vt 0.368102 0.484408
vt 0.371673 0.466441
vt 0.337144 0.577938
vt 0.333759 0.473497
vt 0.351147 0.534901
vt 0.357659 0.541040
vt 0.371967 0.498023
vt 0.368878 0.459453
vt 0.333417 0.469621
vt 0.343423 0.584131
vt 0.366394 0.456425
vt 0.354780 0.524167
vt 0.345379 0.487828
vt 0.350562 0.562595
vt 0.339021 0.483565
vt 0.354139 0.551809
vt 0.348728 0.488835
vt 0.363623 0.454068
vt 0.352739 0.450680
vt 0.355854 0.520524
vt 0.366769 0.488298
vt 0.341810 0.485871
vt 0.360026 0.533862
vt 0.333417 0.588757
vt 0.350037 0.538530
vt 0.366433 0.483550
vt 0.335810 0.581592
vt 0.362398 0.526690
vt 0.363453 0.523157
vt 0.355294 0.548224
vt 0.346480 0.549360
vt 0.356518 0.544428
vt 0.356706 0.451103
vt 0.341898 0.563515
vt 0.360128 0.452186
vt 0.378105 0.480008
vt 0.352929 0.555410
vt 0.364778 0.519521
vt 0.353451 0.527825
vt 0.374375 0.490855
vt 0.344238 0.556307
vt 0.370470 0.477483
vt 0.363182 0.498767
vt 0.361077 0.530375
vt 0.352724 0.469934
vt 0.344715 0.580653
vt 0.345596 0.452024
vt 0.358292 0.513208
vt 0.342942 0.560081
vt 0.334758 0.585049
vt 0.370765 0.501444
vt 0.341027 0.591304
vt 0.339529 0.570743
vt 0.368323 0.508621
vt 0.360747 0.505924
vt 0.348861 0.541971
vt 0.349185 0.451012
vt 0.352766 0.489284
vt 0.365612 0.491672
vt 0.336555 0.480486
vt 0.334805 0.477147
vt 0.363234 0.486133
vt 0.347165 0.573264
vt 0.359554 0.509815
vt 0.375695 0.487055
vt 0.339124 0.456248
vt 0.379190 0.476513
vn -0.015232 0.991265 0.131006
vn -0.021571 0.991125 0.131168
vn -0.019463 0.991218 0.130800
vn -0.020772 0.991363 0.129493
vn -0.019463 0.991218 0.130800
vn -0.016510 0.990968 0.133080
vn -0.015261 0.991262 0.131025
vn -0.019463 0.991218 0.130800
vn -0.020772 0.991363 0.129493
vn -0.015261 0.991262 0.131025
vn -0.021024 0.991058 0.131769
vn -0.019463 0.991218 0.130800
vn 0.920993 -0.034729 0.388029
vn 0.980909 -0.008346 0.194286
vn 0.981858 -0.005789 0.189527
vn 0.999769 0.019660 0.008674
vn 0.980092 0.045247 -0.193320
vn 0.979523 0.046825 -0.195813
vn 0.926367 0.070334 -0.369996
vn 0.833865 0.091230 -0.544378
vn 0.832007 0.092706 -0.546965
vn 0.710314 0.111723 -0.694961
vn 0.562943 0.122447 -0.817375
vn 0.556845 0.124717 -0.821200
vn 0.386504 0.135280 -0.912312
vn 0.201343 0.136139 -0.970014
vn 0.197959 0.136913 -0.970601
vn 0.005837 0.137563 -0.990476
vn -0.192135 0.129575 -0.972777
vn -0.192454 0.129405 -0.972736
vn -0.377135 0.119846 -0.918372
vn -0.550863 0.102487 -0.828280
vn -0.553915 0.102586 -0.826229
vn -0.703316 0.084182 -0.705875
vn -0.827646 0.059294 -0.558110
vn -0.828446 0.058856 -0.556967
vn -0.920506 0.034666 -0.389187
vn -0.980273 0.008108 -0.197484
vn -0.979656 0.007134 -0.200560
vn -0.999759 -0.019038 -0.010901
vn -0.980088 -0.044998 0.193400
vn -0.980711 -0.046075 0.189954
vn -0.927322 -0.070358 0.367592
vn -0.834558 -0.090547 0.543428
vn -0.835442 -0.091230 0.541954
vn -0.828446 0.058856 -0.556967
vn -0.921092 0.035134 -0.387756
vn -0.920506 0.034666 -0.389187
vn -0.562060 -0.123023 0.817896
vn -0.391876 -0.134767 0.910094
vn -0.390413 -0.133931 0.910846
vn -0.553915 0.102586 -0.826229
vn -0.701295 0.082881 -0.708036
vn -0.703316 0.084182 -0.705875
vn -0.979656 0.007134 -0.200560
vn -0.999773 -0.018740 -0.010136
vn -0.999759 -0.019038 -0.010901
vn -0.196731 -0.136797 0.970867
vn -0.009607 -0.137699 0.990428
vn -0.009138 -0.137549 0.990453
vn -0.192454 0.129405 -0.972736
vn -0.376573 0.119447 -0.918654
vn -0.377135 0.119846 -0.918372
vn -0.835442 -0.091230 0.541954
vn -0.713586 -0.110861 0.691741
vn -0.713357 -0.110578 0.692022
vn 0.197959 0.136913 -0.970601
vn 0.005714 0.137536 -0.990480
vn 0.005837 0.137563 -0.990476
vn 0.198102 -0.128355 0.971741
vn 0.373260 -0.120566 0.919859
vn 0.375223 -0.119330 0.919221
vn 0.556845 0.124717 -0.821200
vn 0.389116 0.133672 -0.911439
vn 0.386504 0.135280 -0.912312
vn 0.560370 -0.100756 0.822091
vn 0.700074 -0.084701 0.709029
vn 0.701619 -0.083385 0.707657
vn 0.832008 0.092712 -0.546963
vn 0.712016 0.110169 -0.693466
vn 0.710314 0.111723 -0.694961
vn -0.980711 -0.046075 0.189954
vn -0.926691 -0.069659 0.369311
vn -0.927322 -0.070358 0.367592
vn 0.979523 0.046825 -0.195813
vn 0.926107 0.070667 -0.370582
vn 0.926367 0.070334 -0.369996
vn 0.833876 -0.057561 0.548942
vn 0.920452 -0.035715 0.389220
vn 0.920993 -0.034729 0.388029
vn 0.981858 -0.005789 0.189527
vn 0.999777 0.018370 0.010368
vn 0.999769 0.019660 0.008674
vn 0.701619 -0.083385 0.707657
vn 0.830653 -0.060227 0.553524
vn 0.833876 -0.057561 0.548942
vn 0.375223 -0.119330 0.919221
vn 0.555118 -0.103183 0.825347
vn 0.560370 -0.100756 0.822091
vn -0.009138 -0.137549 0.990453
vn 0.194234 -0.129581 0.972359
vn 0.198102 -0.128355 0.971741
vn -0.390413 -0.133931 0.910846
vn -0.199626 -0.137370 0.970195
vn -0.196731 -0.136797 0.970867
vn -0.713357 -0.110578 0.692022
vn -0.564021 -0.123231 0.816513
vn -0.562060 -0.123023 0.817896
vn -0.020995 0.991459 0.128717
vn -0.015232 0.991265 0.131006
vn -0.019463 0.991218 0.130800
vn -0.016328 0.990976 0.133043
vn -0.020995 0.991459 0.128717
vn -0.019463 0.991218 0.130800
vn -0.019068 0.991679 0.127313
vn -0.016328 0.990976 0.133043
vn -0.019463 0.991218 0.130800
vn -0.018733 0.990847 0.133687
vn -0.019068 0.991679 0.127313
vn -0.019463 0.991218 0.130800
vn -0.016826 0.991685 0.127587
vn -0.018733 0.990847 0.133687
vn -0.019463 0.991218 0.130800
vn -0.020900 0.990970 0.132443
vn -0.016826 0.991685 0.127587
vn -0.019463 0.991218 0.130800
vn -0.015147 0.991452 0.129587
vn -0.020900 0.990970 0.132443
vn -0.019463 0.991218 0.130800
vn -0.021652 0.991289 0.129910
vn -0.015147 0.991452 0.129587
vn -0.019463 0.991218 0.130800
vn -0.015317 0.991118 0.132103
vn -0.021652 0.991289 0.129910
vn -0.019463 0.991218 0.130800
vn -0.020255 0.991532 0.128277
vn -0.015317 0.991118 0.132103
vn -0.019463 0.991218 0.130800
vn -0.017137 0.990887 0.133604
vn -0.020255 0.991532 0.128277
vn -0.019463 0.991218 0.130800
vn -0.017984 0.991650 0.127702
vn -0.017137 0.990887 0.133604
vn -0.019463 0.991218 0.130800
vn -0.019558 0.990863 0.133446
vn -0.017984 0.991650 0.127702
vn -0.019463 0.991218 0.130800
vn -0.016170 0.991494 0.129143
vn -0.019558 0.990863 0.133446
vn -0.019463 0.991218 0.130800
vn -0.021024 0.991058 0.131769
vn -0.016170 0.991494 0.129143
vn -0.019463 0.991218 0.130800
vn -0.019116 0.991573 0.128130
vn -0.016510 0.990968 0.133080
vn -0.019463 0.991218 0.130800
vn -0.018778 0.990847 0.133679
vn -0.019116 0.991573 0.128130
vn -0.019463 0.991218 0.130800
vn -0.016963 0.991575 0.128420
vn -0.018778 0.990847 0.133679
vn -0.019463 0.991218 0.130800
vn -0.020654 0.990955 0.132599
vn -0.016963 0.991575 0.128420
vn -0.019463 0.991218 0.130800
vn -0.015647 0.991364 0.130204
vn -0.020654 0.990955 0.132599
vn -0.019463 0.991218 0.130800
vn -0.021405 0.991250 0.130254
vn -0.015647 0.991364 0.130204
vn -0.019463 0.991218 0.130800
vn -0.016149 0.991085 0.132247
vn -0.021405 0.991250 0.130254
vn -0.019463 0.991218 0.130800
vn -0.020186 0.991499 0.128540
vn -0.016149 0.991085 0.132247
vn -0.019463 0.991218 0.130800
vn -0.017926 0.990852 0.133758
vn -0.020186 0.991499 0.128540
vn -0.019463 0.991218 0.130800
vn -0.017960 0.991655 0.127660
vn -0.017926 0.990852 0.133758
vn -0.019463 0.991218 0.130800
vn -0.020117 0.990936 0.132822
vn -0.017960 0.991655 0.127660
vn -0.019463 0.991218 0.130800
vn -0.015866 0.991554 0.128719
vn -0.020117 0.990936 0.132822
vn -0.019463 0.991218 0.130800
vn -0.021571 0.991125 0.131168
vn -0.015866 0.991554 0.128719
vn -0.019463 0.991218 0.130800
vn 0.920452 -0.035715 0.389220
vn 0.980909 -0.008346 0.194286
vn 0.920993 -0.034729 0.388029
vn 0.999777 0.018370 0.010368
vn 0.980092 0.045247 -0.193320
vn 0.999769 0.019660 0.008674
vn 0.926107 0.070667 -0.370582
vn 0.833865 0.091230 -0.544378
vn 0.926367 0.070334 -0.369996
vn 0.712016 0.110169 -0.693466
vn 0.562943 0.122447 -0.817375
vn 0.710314 0.111723 -0.694961
vn 0.389116 0.133672 -0.911439
vn 0.201343 0.136139 -0.970014
vn 0.386504 0.135280 -0.912312
vn 0.005714 0.137536 -0.990480
vn -0.192135 0.129575 -0.972777
vn 0.005837 0.137563 -0.990476
vn -0.376573 0.119447 -0.918654
vn -0.550863 0.102487 -0.828280
vn -0.377135 0.119846 -0.918372
vn -0.701295 0.082881 -0.708036
vn -0.827646 0.059294 -0.558110
vn -0.703316 0.084182 -0.705875
vn -0.921092 0.035134 -0.387756
vn -0.980273 0.008108 -0.197484
vn -0.920506 0.034666 -0.389187
vn -0.999773 -0.018740 -0.010136
vn -0.980088 -0.044998 0.193400
vn -0.999759 -0.019038 -0.010901
vn -0.926691 -0.069659 0.369311
vn -0.834558 -0.090547 0.543428
vn -0.927322 -0.070358 0.367592
vn -0.827646 0.059294 -0.558110
vn -0.921092 0.035134 -0.387756
vn -0.828446 0.058856 -0.556967
vn -0.564021 -0.123231 0.816513
vn -0.391876 -0.134767 0.910094
vn -0.562060 -0.123023 0.817896
vn -0.550863 0.102487 -0.828280
vn -0.701295 0.082881 -0.708036
vn -0.553915 0.102586 -0.826229
vn -0.980273 0.008108 -0.197484
vn -0.999773 -0.018740 -0.010136
vn -0.979656 0.007134 -0.200560
vn -0.199626 -0.137370 0.970195
vn -0.009607 -0.137699 0.990428
vn -0.196731 -0.136797 0.970867
vn -0.192135 0.129575 -0.972777
vn -0.376573 0.119447 -0.918654
vn -0.192454 0.129405 -0.972736
vn -0.834558 -0.090547 0.543428
vn -0.713586 -0.110861 0.691741
vn -0.835442 -0.091230 0.541954
vn 0.201343 0.136139 -0.970014
vn 0.005714 0.137536 -0.990480
vn 0.197959 0.136913 -0.970601
vn 0.194234 -0.129581 0.972359
vn 0.373260 -0.120566 0.919859
vn 0.198102 -0.128355 0.971741
vn 0.562943 0.122447 -0.817375
vn 0.389116 0.133672 -0.911439
vn 0.556845 0.124717 -0.821200
vn 0.555118 -0.103183 0.825347
vn 0.700074 -0.084701 0.709029
vn 0.560370 -0.100756 0.822091
vn 0.833858 0.091225 -0.544389
vn 0.712016 0.110169 -0.693466
vn 0.832008 0.092712 -0.546963
vn -0.980088 -0.044998 0.193400
vn -0.926691 -0.069659 0.369311
vn -0.980711 -0.046075 0.189954
vn 0.980092 0.045247 -0.193320
vn 0.926107 0.070667 -0.370582
vn 0.979523 0.046825 -0.195813
vn 0.830653 -0.060227 0.553524
vn 0.920452 -0.035715 0.389220
vn 0.833876 -0.057561 0.548942
vn 0.980909 -0.008346 0.194286
vn 0.999777 0.018370 0.010368
vn 0.981858 -0.005789 0.189527
vn 0.700074 -0.084701 0.709029
vn 0.830653 -0.060227 0.553524
vn 0.701619 -0.083385 0.707657
vn 0.373260 -0.120566 0.919859
vn 0.555118 -0.103183 0.825347
vn 0.375223 -0.119330 0.919221
vn -0.009607 -0.137699 0.990428
vn 0.194234 -0.129581 0.972359
vn -0.009138 -0.137549 0.990453
vn -0.391876 -0.134767 0.910094
vn -0.199626 -0.137370 0.970195
vn -0.390413 -0.133931 0.910846
vn -0.713586 -0.110861 0.691741
vn -0.564021 -0.123231 0.816513
vn -0.713357 -0.110578 0.692022
s off
g P_Controller_L:LMenu
usemtl P_Controller_L:LBodySG
f 1/49/1 2/90/2 3/77/3
f 4/67/4 3/77/5 5/50/6
f 6/65/7 3/77/8 4/67/9
f 6/65/10 7/51/11 3/77/12
f 8/91/13 9/72/14 10/53/15
f 11/33/16 12/12/17 13/32/18
f 14/21/19 15/99/20 16/31/21
f 17/82/22 18/42/23 19/59/24
f 20/35/25 21/3/26 22/26/27
f 23/85/28 24/29/29 25/13/30
f 26/66/31 27/46/32 28/81/33
f 29/73/34 30/69/35 31/17/36
f 32/63/37 33/62/38 34/2/39
f 35/88/40 36/38/41 37/57/42
f 38/37/43 39/55/44 40/20/45
f 31/17/46 41/48/47 32/63/48
f 42/44/49 43/61/50 44/52/51
f 28/81/52 45/22/53 29/73/54
f 34/2/55 46/64/56 35/88/57
f 47/28/58 48/30/59 49/80/60
f 25/13/61 50/18/62 26/66/63
f 40/20/64 51/76/65 52/71/66
f 22/26/67 53/95/68 23/85/69
f 54/96/70 55/86/71 56/87/72
f 19/59/73 57/78/74 20/35/75
f 58/19/76 59/83/77 60/75/78
f 61/56/79 62/4/80 17/82/81
f 37/57/82 63/5/83 38/37/84
f 13/32/85 64/68/86 14/21/87
f 65/14/88 66/10/89 8/91/90
f 10/53/91 67/97/92 11/33/93
f 60/75/94 68/39/95 65/14/96
f 56/87/97 69/11/98 58/19/99
f 49/80/100 70/7/101 54/96/102
f 44/52/103 71/70/104 47/28/105
f 52/71/106 72/60/107 42/44/108
f 73/45/109 1/49/110 3/77/111
f 74/54/112 73/45/113 3/77/114
f 75/47/115 74/54/116 3/77/117
f 76/92/118 75/47/119 3/77/120
f 77/93/121 76/92/122 3/77/123
f 78/36/124 77/93/125 3/77/126
f 79/41/127 78/36/128 3/77/129
f 80/9/130 79/41/131 3/77/132
f 81/27/133 80/9/134 3/77/135
f 82/1/136 81/27/137 3/77/138
f 83/98/139 82/1/140 3/77/141
f 84/16/142 83/98/143 3/77/144
f 85/79/145 84/16/146 3/77/147
f 86/89/148 85/79/149 3/77/150
f 7/51/151 86/89/152 3/77/153
f 87/43/154 5/50/155 3/77/156
f 88/40/157 87/43/158 3/77/159
f 89/6/160 88/40/161 3/77/162
f 90/34/163 89/6/164 3/77/165
f 91/25/166 90/34/167 3/77/168
f 92/8/169 91/25/170 3/77/171
f 93/74/172 92/8/173 3/77/174
f 94/15/175 93/74/176 3/77/177
f 95/58/178 94/15/179 3/77/180
f 96/94/181 95/58/182 3/77/183
f 97/23/184 96/94/185 3/77/186
f 98/24/187 97/23/188 3/77/189
f 2/90/190 98/24/191 3/77/192
f 66/10/193 9/72/194 8/91/195
f 67/97/196 12/12/197 11/33/198
f 64/68/199 15/99/200 14/21/201
f 62/4/202 18/42/203 17/82/204
f 57/78/205 21/3/206 20/35/207
f 53/95/208 24/29/209 23/85/210
f 50/18/211 27/46/212 26/66/213
f 45/22/214 30/69/215 29/73/216
f 41/48/217 33/62/218 32/63/219
f 46/64/220 36/38/221 35/88/222
f 63/5/223 39/55/224 38/37/225
f 30/69/226 41/48/227 31/17/228
f 72/60/229 43/61/230 42/44/231
f 27/46/232 45/22/233 28/81/234
f 33/62/235 46/64/236 34/2/237
f 71/70/238 48/30/239 47/28/240
f 24/29/241 50/18/242 25/13/243
f 39/55/244 51/76/245 40/20/246
f 21/3/247 53/95/248 22/26/249
f 70/7/250 55/86/251 54/96/252
f 18/42/253 57/78/254 19/59/255
f 69/11/256 59/83/257 58/19/258
f 99/84/259 62/4/260 61/56/261
f 36/38/262 63/5/263 37/57/264
f 12/12/265 64/68/266 13/32/267
f 68/39/268 66/10/269 65/14/270
f 9/72/271 67/97/272 10/53/273
f 59/83/274 68/39/275 60/75/276
f 55/86/277 69/11/278 56/87/279
f 48/30/280 70/7/281 49/80/282
f 43/61/283 71/70/284 44/52/285
f 51/76/286 72/60/287 52/71/288
